<svg xmlns="http://www.w3.org/2000/svg" style="display:none">
  <symbol id="twitch" viewBox="0 0 24 24">
    <path fill="currentColor" d="M3 2h18v13l-4 4h-4l-3 3v-3H3zM7 6v7h2V6zm5 0v7h2V6z" />
  </symbol>
  <symbol id="github" viewBox="0 0 24 24">
    <path fill="currentColor" d="M12 2a10 10 0 0 0-3.16 19.49c.5.09.66-.22.66-.48v-1.7c-2.73.59-3.3-1.17-3.3-1.17-.45-1.14-1.1-1.44-1.1-1.44-.9-.62.07-.61.07-.61 1 .07 1.52 1.03 1.52 1.03.89 1.52 2.33 1.08 2.89.82.09-.65.35-1.08.63-1.33-2.18-.25-4.47-1.09-4.47-4.85 0-1.07.38-1.95 1.02-2.64-.1-.25-.44-1.27.1-2.64 0 0 .83-.27 2.73 1.01A9.4 9.4 0 0 1 12 6.8a9.4 9.4 0 0 1 2.49.34c1.89-1.28 2.72-1.01 2.72-1.01.54 1.37.2 2.39.1 2.64.64.69 1.02 1.57 1.02 2.64 0 3.77-2.3 4.59-4.49 4.84.36.31.67.91.67 1.85v2.75c0 .27.18.57.67.48A10 10 0 0 0 12 2z" />
  </symbol>
  <symbol id="instagram" viewBox="0 0 24 24">
    <path fill="currentColor" d="M7 2h10a5 5 0 0 1 5 5v10a5 5 0 0 1-5 5H7a5 5 0 0 1-5-5V7a5 5 0 0 1 5-5m10 2H7a3 3 0 0 0-3 3v10a3 3 0 0 0 3 3h10a3 3 0 0 0 3-3V7a3 3 0 0 0-3-3m-5 3.5A4.5 4.5 0 1 1 7.5 12 4.5 4.5 0 0 1 12 7.5m0 2A2.5 2.5 0 1 0 14.5 12 2.5 2.5 0 0 0 12 9.5m4.75-3.25a1.25 1.25 0 1 1-1.25 1.25 1.25 1.25 0 0 1 1.25-1.25" />
  </symbol>
  <symbol id="youtube" viewBox="0 0 24 24">
    <path fill="currentColor" d="M23 12s0-3.4-.44-5.03a2.95 2.95 0 0 0-2.07-2.07C18.86 4.46 12 4.46 12 4.46s-6.86 0-8.49.44A2.95 2.95 0 0 0 1.44 6.97 19.8 19.8 0 0 0 1 12a19.8 19.8 0 0 0 .44 5.03 2.95 2.95 0 0 0 2.07 2.07c1.63.44 8.49.44 8.49.44s6.86 0 8.49-.44a2.95 2.95 0 0 0 2.07-2.07C23 15.4 23 12 23 12M10 15.5v-7l6 3.5z" />
  </symbol>
  <symbol id="x" viewBox="0 0 24 24">
    <path fill="currentColor" d="M18.9 2H22l-6.77 7.74L23.2 22h-6.25l-4.9-6.4L6.5 22H3.4l7.24-8.28L.8 2h6.36l4.43 5.84z" />
  </symbol>
  <symbol id="linkedin" viewBox="0 0 24 24">
    <path fill="currentColor" d="M6.94 8.5H3.56V20h3.38zM5.25 3A1.97 1.97 0 1 0 7.2 4.97 1.97 1.97 0 0 0 5.25 3M20.44 13.43c0-3.07-1.64-4.5-3.82-4.5a3.3 3.3 0 0 0-2.97 1.63V8.5h-3.24V20h3.38v-5.7c0-1.5.29-2.95 2.15-2.95 1.83 0 1.86 1.71 1.86 3.05V20h3.38z" />
  </symbol>
</svg>
